<?xml version="1.0" standalone="no"?>
<!DOCTYPE svg PUBLIC "-//W3C//DTD SVG 20010904//EN"
 "http://www.w3.org/TR/2001/REC-SVG-20010904/DTD/svg10.dtd">
<svg version="1.0" xmlns="http://www.w3.org/2000/svg"
 width="116.000000pt" height="35.000000pt" viewBox="0 0 116.000000 35.000000"
 preserveAspectRatio="xMidYMid meet">

<g transform="translate(0.000000,35.000000) scale(0.100000,-0.100000)"
fill="#000000" stroke="none">
<path d="M40 180 c0 -82 3 -100 15 -100 9 0 15 9 15 25 0 22 4 25 38 25 58 0
82 22 82 75 0 56 -24 75 -97 75 l-53 0 0 -100z m108 58 c15 -15 15 -51 0 -66
-7 -7 -27 -12 -45 -12 -32 0 -33 1 -33 45 0 44 1 45 33 45 18 0 38 -5 45 -12z"/>
<path d="M570 180 c0 -82 3 -100 15 -100 11 0 15 12 15 45 l0 45 45 0 c33 0
45 4 45 15 0 11 -12 15 -45 15 -41 0 -45 2 -45 25 0 23 3 25 50 25 38 0 50 4
50 15 0 12 -14 15 -65 15 l-65 0 0 -100z"/>
<path d="M780 260 c-14 -10 -22 -22 -18 -25 9 -10 70 24 63 35 -9 14 -17 12
-45 -10z"/>
<path d="M880 180 c0 -60 4 -100 10 -100 6 0 10 40 10 100 0 60 -4 100 -10
100 -6 0 -10 -40 -10 -100z"/>
<path d="M470 245 c0 -19 -5 -25 -21 -25 -11 0 -29 -5 -40 -10 -13 -7 -19 -7
-19 0 0 5 -7 10 -16 10 -11 0 -14 -5 -10 -16 3 -9 6 -40 6 -70 0 -40 4 -54 14
-54 11 0 16 15 18 53 3 51 4 52 36 55 31 3 32 2 32 -37 0 -21 3 -46 6 -55 8
-21 64 -22 64 -1 0 8 -9 15 -20 15 -17 0 -20 7 -20 40 0 33 3 40 20 40 11 0
20 7 20 15 0 8 -9 15 -20 15 -15 0 -20 7 -20 25 0 16 -6 25 -15 25 -9 0 -15
-9 -15 -25z"/>
<path d="M940 255 c0 -8 7 -15 15 -15 8 0 15 7 15 15 0 8 -7 15 -15 15 -8 0
-15 -7 -15 -15z"/>
<path d="M230 200 c-60 -60 18 -153 88 -104 31 21 31 87 0 108 -31 22 -64 20
-88 -4z m80 -30 c22 -40 -26 -80 -58 -48 -25 25 -6 68 30 68 9 0 22 -9 28 -20z"/>
<path d="M742 204 c-16 -11 -22 -25 -22 -54 0 -65 65 -93 108 -47 28 30 28 68
-1 95 -27 26 -54 28 -85 6z m72 -36 c8 -13 8 -23 0 -35 -16 -26 -51 -28 -64
-4 -25 47 36 83 64 39z"/>
<path d="M940 150 c0 -56 3 -70 15 -70 12 0 15 14 15 70 0 56 -3 70 -15 70
-12 0 -15 -14 -15 -70z"/>
<path d="M1022 204 c-16 -11 -22 -25 -22 -54 0 -65 65 -93 108 -47 28 30 28
68 -1 95 -27 26 -54 28 -85 6z m72 -36 c8 -13 8 -23 0 -35 -28 -45 -89 -9 -64
38 13 24 48 22 64 -3z"/>
</g>
</svg>
